<svg xmlns="http://www.w3.org/2000/svg" viewBox="0 0 512 512">
  <path fill="#FFAB00" d="M473.7 136.6c-42.9-43-112.5-43-155.4 0l-280 280-14.7 6.4c-9.5 4.1-16.1 12.9-17.6 23.2s3.1 20.6 11.2 27l21.6 17.3c15.2 12.2 37.5 10 49.6-5.1l7.8-15.6 280-280c42.9-42.9 42.9-112.5 0-155.4l-4.2-4.2c11-12.8 5.6-32.9-11.2-37.1L420.2 163l-37-37 29.8-20.9c15.9-11.2 15.6-34.9 2-49l-4.2-4.2zm-286 295.6l-67.9 67.9-17-13.6 57.7-115.4c4.5-9 2.1-20-5.9-26.4L137 348l115.4-57.7c9-4.5 20-2.1 26.4 5.9l13.6 17z"/>
  <path fill="#E65100" d="M197.3 400.6l-79.2 79.2-28.3-22.6 67.9-135.8 45.3 45.3z"/>
  <circle cx="430.2" cy="81.8" r="24" fill="#5D4037"/>
</svg>
