<svg xmlns="http://www.w3.org/2000/svg" viewBox="0 0 512 512">
  <path fill="#FFC107" d="M495.9 166.6c3.2 8.7 .5 18.4-6.4 24.6l-43.3 39.4c1.1 8.3 1.7 16.8 1.7 25.4c0 78.3-21.3 151.7-58.2 214.6c-4.9 8.3-14.1 13.4-23.7 13.4H312.4c-12 0-22.9-7.9-26.1-19.6l-10-36.8c-10.7-38.5-44.2-66-84.1-66C153.5 357.6 120 385.1 109.4 423.6l-10 36.8c-3.2 11.7-14.1 19.6-26.1 19.6H20.1c-9.6 0-18.8-5.1-23.7-13.4C-37.8 403.7-59.1 330.3-59.1 252c0-8.6 .6-17.1 1.7-25.4l-43.3-39.4c-6.9-6.2-9.6-15.9-6.4-24.6l20.2-54.6c5-13.5 19.3-21.1 32.9-18.2l56.3 12c22.7-18.2 59.8-38.8 99.7-58.4l15.1-55.6c3.6-13.3 15.6-22.8 29.3-22.8H252.2c13.7 0 25.7 9.5 29.3 22.8l15.1 55.6c39.9 19.6 77 40.2 99.7 58.4l56.3-12c13.6-2.9 27.9 4.7 32.9 18.2l20.4 54.6z"/>
  <path fill="#FF9800" d="M256 96c-88.4 0-160 71.6-160 160s71.6 160 160 160 160-71.6 160-160-71.6-160-160-160z"/>
</svg>
