<svg width="564" height="99" viewBox="0 0 564 99" fill="none" xmlns="http://www.w3.org/2000/svg">
<path d="M29.7835 13.748L22.0786 31.7512L7.1115 35.3977C1.45115 36.7708 -2.40886 29.8136 1.74105 25.74L20.4919 7.40103C24.9775 3.00701 32.2246 7.98081 29.7682 13.748H29.7835Z" fill="white"/>
<path d="M44.1555 54.9875L43.8199 55.7808L14.8773 75.3708C10.1476 78.5748 4.15164 73.6315 6.39442 68.3831L22.0634 31.751L80.5741 17.4705C86.7837 15.96 90.4301 24.1988 85.1359 27.7689L45.4371 54.6671L44.1403 54.9722L44.1555 54.9875Z" fill="white"/>
<path d="M107.243 49.9408L36.9695 97.5275C32.2398 100.731 26.2438 95.7882 28.5018 90.5398L43.8352 54.701L45.4524 53.6025L102.666 39.6423C108.861 38.1319 112.522 46.3707 107.228 49.9408H107.243Z" fill="white"/>
<path d="M45.4527 54.6826L43.8354 55.7811L44.1558 54.9878L45.4527 54.6826Z" fill="white"/>
<path d="M45.4527 54.6826L43.8354 55.7811L44.1558 54.9878L45.4527 54.6826Z" fill="white"/>
<path d="M46.8255 15.9601C51.1566 15.9601 54.6676 12.449 54.6676 8.11796C54.6676 3.78689 51.1566 0.275879 46.8255 0.275879C42.4944 0.275879 38.9834 3.78689 38.9834 8.11796C38.9834 12.449 42.4944 15.9601 46.8255 15.9601Z" fill="#FDCA40"/>
<path d="M165.337 68.9872L161.402 74.7054C160.491 76.0235 161.441 77.8068 163.03 77.8068H182.084C188.19 77.8068 192.862 79.6095 196.099 83.1955C198.987 86.4132 200.596 90.9103 200.887 96.7254C200.945 97.8497 200.034 98.8189 198.91 98.8189H191.098C190.07 98.8189 189.237 98.0241 189.14 97.0162C188.559 91.8213 185.36 89.2239 179.526 89.2239H147.387C146.302 89.2239 145.41 88.3323 145.41 87.2468V78.4271C145.41 78.0394 145.526 77.6517 145.74 77.3222L154.85 63.5985C155.354 62.8425 155.296 61.8539 154.676 61.1949C152.757 59.1596 151.225 56.7948 150.082 54.1004C148.725 50.9408 148.066 47.5099 148.066 43.8076C148.066 39.2524 149.171 35.0848 151.361 31.2856C153.571 27.4864 156.556 24.4819 160.316 22.2722C164.077 20.0624 168.206 18.9769 172.683 18.9769C176.386 18.9769 179.972 19.791 183.461 21.3805C184.294 21.7682 185.263 21.4968 185.825 20.7796L191.33 13.5882C191.989 12.7354 193.191 12.5609 194.064 13.2005L200.247 17.6976C201.139 18.3566 201.332 19.6166 200.654 20.4889L194.16 28.9983C193.676 29.638 193.637 30.5103 194.044 31.2275C196.273 35.1042 197.398 39.3105 197.398 43.827C197.398 48.3434 196.293 52.666 194.102 56.4652C191.893 60.2645 188.907 63.2689 185.147 65.4787C181.387 67.6885 177.18 68.774 172.567 68.774C170.803 68.774 169.058 68.5995 167.353 68.2312C166.577 68.0568 165.763 68.3475 165.317 69.0066L165.337 68.9872ZM182.763 52.6854C184.856 50.1655 185.922 47.1804 185.922 43.6913C185.922 39.9308 184.643 36.7325 182.084 34.0963C179.526 31.4601 176.405 30.1614 172.703 30.1614C169 30.1614 165.899 31.4795 163.379 34.0963C160.859 36.7325 159.599 39.9308 159.599 43.6913C159.599 47.4518 160.859 50.7858 163.379 53.4414C165.647 55.8256 168.38 57.1436 171.578 57.3956C175.823 57.7252 180.049 55.9419 182.763 52.6854Z" fill="white"/>
<path d="M210.269 0H218.042C219.127 0 220.019 0.891634 220.019 1.97713V22.3883C220.019 24.0747 221.976 24.947 223.295 23.8809C224.516 22.8923 225.873 22.0394 227.385 21.3222C230.37 19.9072 233.665 19.19 237.29 19.19C241.845 19.19 245.896 20.2367 249.443 22.3301C252.991 24.4236 255.762 27.3506 257.759 31.1304C259.755 34.8909 260.744 39.2328 260.744 44.1369V76.7018C260.744 77.7873 259.852 78.6789 258.767 78.6789H250.897C249.812 78.6789 248.92 77.7873 248.92 76.7018V44.1369C248.92 40.0082 247.641 36.6742 245.082 34.1155C242.523 31.5569 239.189 30.2775 235.06 30.2775C230.66 30.2775 227.055 31.615 224.244 34.2706C221.434 36.9262 220.038 40.3959 220.038 44.6603V76.6824C220.038 77.7679 219.146 78.6595 218.061 78.6595H210.288C209.202 78.6595 208.311 77.7679 208.311 76.6824V1.97713C208.311 0.891634 209.202 0 210.288 0H210.269Z" fill="white"/>
<path d="M282.803 76.0044C278.112 73.3101 274.41 69.6271 271.715 64.975C269.021 60.3229 267.664 55.1862 267.664 49.5649C267.664 43.9436 269.021 38.8262 271.715 34.2129C274.41 29.5995 278.112 25.936 282.803 23.2416C287.494 20.5473 292.65 19.1904 298.252 19.1904C303.854 19.1904 308.99 20.5473 313.604 23.2416C318.217 25.936 321.881 29.5995 324.575 34.2129C327.269 38.8262 328.626 43.9436 328.626 49.5649C328.626 55.1862 327.269 60.3229 324.575 64.975C321.881 69.6271 318.217 73.3101 313.604 76.0044C308.99 78.6988 303.873 80.0556 298.252 80.0556C292.63 80.0556 287.494 78.6988 282.803 76.0044ZM307.633 66.2931C310.483 64.5874 312.712 62.2807 314.34 59.3731C315.969 56.4655 316.783 53.1897 316.783 49.5649C316.783 45.9401 315.949 42.6643 314.282 39.7567C312.615 36.8491 310.347 34.5424 307.517 32.8754C304.668 31.2084 301.547 30.3749 298.135 30.3749C294.724 30.3749 291.487 31.2084 288.657 32.8754C285.807 34.5424 283.578 36.8297 281.95 39.7567C280.322 42.6643 279.508 45.9401 279.508 49.5649C279.508 53.1897 280.341 56.4655 282.008 59.3731C283.675 62.2807 285.943 64.5874 288.773 66.2931C291.622 67.9989 294.782 68.8518 298.252 68.8518C301.721 68.8518 304.784 67.9989 307.633 66.2931Z" fill="white"/>
<path d="M336.573 20.4691H344.23C345.315 20.4691 346.207 21.3607 346.207 22.4462C346.207 24.1714 348.223 25.0243 349.522 23.9C350.743 22.8533 352.061 21.9617 353.515 21.2057C356.383 19.7131 359.504 18.9766 362.838 18.9766C363.711 18.9766 364.738 19.0735 365.882 19.2867C366.831 19.4612 367.529 20.2752 367.529 21.2444V28.5134C367.529 29.5989 366.637 30.4906 365.552 30.4906H362.625C357.798 30.4906 353.864 31.9443 350.84 34.8519C347.816 37.7595 346.304 42.179 346.304 48.0716V76.6822C346.304 77.7677 345.412 78.6593 344.327 78.6593H336.554C335.468 78.6593 334.577 77.7677 334.577 76.6822V22.4462C334.577 21.3607 335.468 20.4691 336.554 20.4691H336.573Z" fill="white"/>
<path d="M373.926 76.6824V1.97713C373.926 0.891635 374.818 0 375.903 0H383.676C384.762 0 385.653 0.891635 385.653 1.97713V22.5434C385.653 24.1716 387.475 25.0633 388.793 24.1329C390.499 22.9311 392.36 21.9037 394.395 21.0896C397.729 19.7327 401.315 19.0543 405.153 19.0543C410.775 19.0543 415.834 20.4111 420.35 23.1055C424.867 25.7998 428.395 29.4828 430.953 34.1349C433.512 38.787 434.791 43.9237 434.791 49.545C434.791 55.1664 433.512 60.3031 430.953 64.9552C428.395 69.6073 424.867 73.2903 420.35 75.9846C415.834 78.679 410.775 80.0358 405.153 80.0358C401.315 80.0358 397.729 79.3574 394.395 78.0199C392.379 77.2058 390.499 76.1978 388.793 74.9766C387.475 74.0462 385.653 74.9572 385.653 76.5661V76.663C385.653 77.7485 384.762 78.6402 383.676 78.6402H375.903C374.818 78.6402 373.926 77.7485 373.926 76.663V76.6824ZM413.74 66.3508C416.609 64.6838 418.877 62.3965 420.505 59.4696C422.134 56.562 422.948 53.2474 422.948 49.5644C422.948 45.8815 422.134 42.5669 420.505 39.6593C418.877 36.7517 416.609 34.4451 413.74 32.778C410.872 31.111 407.673 30.2775 404.204 30.2775C400.734 30.2775 397.574 31.111 394.764 32.778C391.953 34.4451 389.743 36.7323 388.096 39.6593C386.467 42.5669 385.653 45.8815 385.653 49.5644C385.653 53.2474 386.467 56.562 388.096 59.4696C389.724 62.3771 391.953 64.6838 394.764 66.3508C397.574 68.0179 400.714 68.8513 404.204 68.8513C407.693 68.8513 410.872 68.0179 413.74 66.3508Z" fill="white"/>
<path d="M489.686 76.5856C489.686 74.9573 487.864 74.0656 486.546 74.9961C484.84 76.1979 482.96 77.2252 480.944 78.0393C477.61 79.3962 474.024 80.0552 470.186 80.0552C464.565 80.0552 459.506 78.6984 454.989 76.004C450.473 73.3097 446.945 69.6267 444.386 64.9746C441.828 60.3225 440.548 55.1858 440.548 49.5645C440.548 43.9432 441.828 38.8258 444.386 34.1543C446.945 29.5022 450.473 25.8193 454.989 23.1249C459.506 20.4306 464.565 19.0737 470.186 19.0737C474.024 19.0737 477.61 19.7521 480.944 21.109C482.96 21.9231 484.84 22.9505 486.546 24.1523C487.864 25.0827 489.686 24.1717 489.686 22.5628V22.4465C489.686 21.361 490.578 20.4694 491.663 20.4694H499.533C500.619 20.4694 501.51 21.361 501.51 22.4465V76.6824C501.51 77.7679 500.619 78.6596 499.533 78.6596H491.663C490.578 78.6596 489.686 77.7679 489.686 76.6824V76.5662V76.5856ZM480.576 66.3509C483.387 64.6839 485.596 62.3966 487.244 59.4696C488.872 56.562 489.686 53.2474 489.686 49.5645C489.686 45.8816 488.872 42.5669 487.244 39.6593C485.616 36.7518 483.387 34.4451 480.576 32.7781C477.765 31.1111 474.625 30.2776 471.136 30.2776C467.647 30.2776 464.468 31.1111 461.599 32.7781C458.73 34.4451 456.462 36.7324 454.834 39.6593C453.206 42.5669 452.392 45.8816 452.392 49.5645C452.392 53.2474 453.206 56.562 454.834 59.4696C456.462 62.3772 458.73 64.6839 461.599 66.3509C464.468 68.0179 467.647 68.8514 471.136 68.8514C474.625 68.8514 477.765 68.0179 480.576 66.3509Z" fill="white"/>
<path d="M513.296 20.4691H520.953C522.038 20.4691 522.93 21.3607 522.93 22.4462C522.93 24.1714 524.946 25.0243 526.244 23.9C527.465 22.8533 528.784 21.9617 530.237 21.2057C533.106 19.7131 536.227 18.9766 539.561 18.9766C540.433 18.9766 541.461 19.0735 542.604 19.2867C543.554 19.4612 544.252 20.2752 544.252 21.2444V28.5134C544.252 29.5989 543.36 30.4906 542.275 30.4906H539.348C534.521 30.4906 530.586 31.9443 527.562 34.8519C524.538 37.7595 523.027 42.179 523.027 48.0716V76.6822C523.027 77.7677 522.135 78.6593 521.049 78.6593H513.277C512.191 78.6593 511.299 77.7677 511.299 76.6822V22.4462C511.299 21.3607 512.191 20.4691 513.277 20.4691H513.296Z" fill="white"/>
<path d="M563.558 1.37646H551.618V13.2006H563.558V1.37646Z" fill="white"/>
<path d="M561.465 20.4692H553.692C552.6 20.4692 551.715 21.3544 551.715 22.4464V76.7017C551.715 77.7937 552.6 78.6789 553.692 78.6789H561.465C562.557 78.6789 563.442 77.7937 563.442 76.7017V22.4464C563.442 21.3544 562.557 20.4692 561.465 20.4692Z" fill="white"/>
</svg>
