<svg width="110" height="99" viewBox="0 0 110 99" fill="none" xmlns="http://www.w3.org/2000/svg">
<path d="M29.7835 13.4721L22.0786 31.4753L7.1115 35.1218C1.45115 36.4949 -2.40886 29.5377 1.74105 25.4641L20.4919 7.12515C24.9775 2.73113 32.2246 7.70493 29.7682 13.4721H29.7835Z" fill="#3772FF"/>
<path d="M44.1555 54.7116L43.8199 55.5049L14.8773 75.0949C10.1476 78.2989 4.15164 73.3557 6.39442 68.1073L22.0634 31.4751L80.5741 17.1946C86.7837 15.6841 90.4301 23.9229 85.1359 27.4931L45.4371 54.3912L44.1403 54.6963L44.1555 54.7116Z" fill="#3772FF"/>
<path d="M107.243 49.6649L36.9695 97.2516C32.2398 100.456 26.2438 95.5123 28.5018 90.2639L43.8352 54.4251L45.4524 53.3266L102.666 39.3665C108.861 37.856 112.522 46.0948 107.228 49.6649H107.243Z" fill="#3772FF"/>
<path d="M45.4527 54.4067L43.8354 55.5052L44.1558 54.7119L45.4527 54.4067Z" fill="#3772FF"/>
<path d="M45.4527 54.4067L43.8354 55.5052L44.1558 54.7119L45.4527 54.4067Z" fill="#3772FF"/>
<path d="M46.8255 15.6842C51.1566 15.6842 54.6676 12.1732 54.6676 7.84208C54.6676 3.51101 51.1566 0 46.8255 0C42.4944 0 38.9834 3.51101 38.9834 7.84208C38.9834 12.1732 42.4944 15.6842 46.8255 15.6842Z" fill="#FDCA40"/>
</svg>
